<svg xmlns="http://www.w3.org/2000/svg" width="32" height="33" viewBox="0 0 32 33" fill="none">
  <g clip-path="url(#clip0_191_1764)">
    <path fill-rule="evenodd" clip-rule="evenodd" d="M0 16.2264C0 24.1811 5.77733 30.7958 13.3333 32.1371V20.5811H9.33333V16.1371H13.3333V12.5811C13.3333 8.58109 15.9107 6.35975 19.556 6.35975C20.7107 6.35975 21.956 6.53709 23.1107 6.71442V10.8038H21.0667C19.1107 10.8038 18.6667 11.7811 18.6667 13.0264V16.1371H22.9333L22.2227 20.5811H18.6667V32.1371C26.2227 30.7958 32 24.1824 32 16.2264C32 7.37709 24.8 0.137085 16 0.137085C7.2 0.137085 0 7.37709 0 16.2264Z" fill="#222222"/>
  </g>
  <defs>
    <clipPath id="clip0_191_1764">
      <rect width="32" height="32" fill="white" transform="translate(0 0.136963)"/>
    </clipPath>
  </defs>
</svg>