<svg xmlns="http://www.w3.org/2000/svg" width="32" height="33" viewBox="0 0 32 33" fill="none">
  <path fill-rule="evenodd" clip-rule="evenodd" d="M1.33301 4.25963C1.33301 3.60967 1.5912 2.98634 2.05079 2.52675C2.51038 2.06716 3.13372 1.80896 3.78367 1.80896H28.213C28.5351 1.80844 28.8541 1.87145 29.1519 1.99439C29.4496 2.11732 29.7201 2.29778 29.948 2.52541C30.1759 2.75305 30.3566 3.02339 30.4799 3.32098C30.6032 3.61856 30.6665 3.93753 30.6663 4.25963V28.689C30.6667 29.0111 30.6035 29.3302 30.4804 29.6279C30.3573 29.9256 30.1768 30.1962 29.949 30.424C29.7213 30.6519 29.4509 30.8326 29.1532 30.9559C28.8555 31.0791 28.5365 31.1425 28.2143 31.1423H3.78367C3.46174 31.1423 3.14295 31.0789 2.84554 30.9556C2.54812 30.8324 2.2779 30.6517 2.05032 30.424C1.82274 30.1963 1.64225 29.926 1.51917 29.6285C1.39609 29.3311 1.33283 29.0122 1.33301 28.6903V4.25963ZM12.9437 12.993H16.9157V14.9876C17.489 13.841 18.9557 12.809 21.1597 12.809C25.385 12.809 26.3863 15.093 26.3863 19.2836V27.0463H22.1103V20.2383C22.1103 17.8516 21.537 16.505 20.081 16.505C18.061 16.505 17.221 17.957 17.221 20.2383V27.0463H12.9437V12.993ZM5.61034 26.8636H9.88767V12.809H5.61034V26.8623V26.8636ZM10.4997 8.22496C10.5077 8.59119 10.4426 8.95535 10.308 9.29605C10.1734 9.63675 9.97214 9.94714 9.71598 10.209C9.45982 10.4709 9.15394 10.6789 8.81628 10.821C8.47862 10.963 8.11599 11.0362 7.74967 11.0362C7.38336 11.0362 7.02073 10.963 6.68307 10.821C6.34541 10.6789 6.03953 10.4709 5.78337 10.209C5.52721 9.94714 5.32593 9.63675 5.19136 9.29605C5.05678 8.95535 4.99161 8.59119 4.99967 8.22496C5.0155 7.5061 5.31219 6.82202 5.82619 6.31921C6.34019 5.8164 7.03064 5.53485 7.74967 5.53485C8.46871 5.53485 9.15916 5.8164 9.67316 6.31921C10.1872 6.82202 10.4838 7.5061 10.4997 8.22496Z" fill="#222222"/>
</svg>