<svg xmlns="http://www.w3.org/2000/svg" width="53" height="31" viewBox="0 0 53 31" fill="none">
  <g clip-path="url(#clip0_46_369)">
    <path fill-rule="evenodd" clip-rule="evenodd" d="M1.18866 2.1464C0.728048 1.6282 1.09591 0.809036 1.78923 0.809036H45.9582C49.8274 0.809036 52.9641 3.94566 52.9641 7.81488V23.508C52.9641 27.3771 49.8274 30.5138 45.9582 30.5138H24.2625C23.2679 30.5138 22.3208 30.0885 21.66 29.3452L19.4039 26.807C18.9433 26.2888 19.3111 25.4696 20.0044 25.4696H45.9582C47.0416 25.4696 47.9199 24.5914 47.9199 23.508V7.81488C47.9199 6.73151 47.0416 5.85326 45.9582 5.85326H6.04727C5.05269 5.85326 4.1056 5.42792 3.44483 4.68458L1.18866 2.1464Z" fill="#3366CC"/>
    <path fill-rule="evenodd" clip-rule="evenodd" d="M20.325 0.608154L33.2426 14.651C33.5734 15.0108 34.1405 15.0134 34.4747 14.6566L45.842 2.52546L49.5226 5.97446L38.1557 18.1056C35.8158 20.6027 31.8469 20.5845 29.5301 18.0659L16.6125 4.02312L20.325 0.608154Z" fill="#3366CC"/>
  </g>
  <defs>
    <clipPath id="clip0_46_369">
      <rect width="53" height="30" fill="white" transform="translate(0 0.525635)"/>
    </clipPath>
  </defs>
</svg>