<svg xmlns="http://www.w3.org/2000/svg" width="32" height="33" viewBox="0 0 32 33" fill="none">
  <path d="M14.502 20.7515L11.5375 23.716C10.9126 24.341 9.91908 24.341 9.2781 23.7321C9.10183 23.5558 8.92557 23.3956 8.7493 23.2193C7.09879 21.5528 5.60852 19.8061 4.2785 17.9793C2.96451 16.1526 1.9069 14.3258 1.13773 12.515C0.384585 10.6882 0 8.94159 0 7.27506C0 6.1854 0.192292 5.14382 0.576877 4.18236C0.961461 3.20487 1.57039 2.30751 2.41968 1.50629C3.44524 0.496755 4.56694 0 5.75274 0C6.20143 0 6.65011 0.0961462 7.05072 0.288438C7.46735 0.480731 7.83591 0.769169 8.12435 1.1858L11.842 6.42577C12.1304 6.82638 12.3388 7.19494 12.483 7.54747C12.6272 7.88398 12.7073 8.2205 12.7073 8.52496C12.7073 8.90954 12.5951 9.29413 12.3708 9.66269C12.1625 10.0312 11.858 10.4158 11.4734 10.8004L10.2556 12.0663C10.0793 12.2426 9.9992 12.4509 9.9992 12.7073C9.9992 12.8355 10.0152 12.9477 10.0473 13.0759C10.0953 13.2041 10.1434 13.3002 10.1755 13.3964C10.4639 13.9252 10.9607 14.6142 11.6657 15.4475C12.3868 16.2807 13.156 17.13 13.9893 17.9793C14.1495 18.1396 14.3258 18.2998 14.486 18.4601C15.127 19.085 15.143 20.1106 14.502 20.7515Z" fill="#222222"/>
  <path d="M31.9998 26.1662C31.9998 26.6149 31.9197 27.0796 31.7595 27.5283C31.7114 27.6565 31.6633 27.7847 31.5992 27.9129C31.3268 28.4897 30.9743 29.0346 30.5096 29.5473C29.7244 30.4127 28.8591 31.0376 27.8816 31.4382C27.8656 31.4382 27.8495 31.4542 27.8335 31.4542C26.8881 31.8388 25.8625 32.0471 24.7568 32.0471C23.1224 32.0471 21.3757 31.6626 19.5329 30.8774C17.6901 30.0922 15.8473 29.0346 14.0205 27.7045C13.3956 27.2398 12.7706 26.7751 12.1777 26.2784L17.4177 21.0384C17.8664 21.3749 18.267 21.6313 18.6035 21.8076C18.6836 21.8396 18.7798 21.8877 18.8919 21.9358C19.0201 21.9838 19.1483 21.9999 19.2925 21.9999C19.5649 21.9999 19.7733 21.9037 19.9495 21.7275L21.1674 20.5256C21.568 20.125 21.9526 19.8206 22.3211 19.6283C22.6897 19.4039 23.0583 19.2917 23.4589 19.2917C23.7633 19.2917 24.0838 19.3558 24.4363 19.5001C24.7889 19.6443 25.1574 19.8526 25.5581 20.125L30.8621 23.8907C31.2788 24.1792 31.5672 24.5157 31.7435 24.9163C31.9037 25.3169 31.9998 25.7175 31.9998 26.1662Z" fill="#222222"/>
</svg>