<svg xmlns="http://www.w3.org/2000/svg" width="32" height="33" viewBox="0 0 32 33" fill="none">
  <path d="M31.5237 6.71941C30.4104 7.21274 29.2144 7.54607 27.957 7.69674C29.2544 6.92046 30.2249 5.6987 30.6877 4.25941C29.4688 4.98339 28.1348 5.493 26.7437 5.76607C25.8082 4.76723 24.5691 4.10517 23.2188 3.88271C21.8685 3.66024 20.4825 3.8898 19.276 4.53574C18.0695 5.18169 17.1101 6.20789 16.5466 7.45501C15.9831 8.70213 15.8471 10.1004 16.1597 11.4327C13.6899 11.3087 11.2739 10.6668 9.06825 9.54861C6.86265 8.43042 4.91681 6.86096 3.35702 4.94207C2.82369 5.86207 2.51702 6.92874 2.51702 8.06474C2.51643 9.0874 2.76827 10.0944 3.25019 10.9964C3.73212 11.8984 4.42924 12.6675 5.27969 13.2354C4.29339 13.204 3.32885 12.9375 2.46636 12.4581V12.5381C2.46626 13.9724 2.9624 15.3626 3.8706 16.4727C4.7788 17.5829 6.04312 18.3446 7.44902 18.6287C6.53407 18.8764 5.57481 18.9128 4.64369 18.7354C5.04035 19.9696 5.81302 21.0488 6.85351 21.822C7.89401 22.5952 9.15024 23.0236 10.4464 23.0474C8.24613 24.7746 5.52887 25.7115 2.73169 25.7074C2.2362 25.7075 1.74113 25.6786 1.24902 25.6207C4.08832 27.4463 7.39348 28.4152 10.769 28.4114C22.1957 28.4114 28.4424 18.9474 28.4424 10.7394C28.4424 10.4727 28.4357 10.2034 28.4237 9.93674C29.6387 9.05804 30.6876 7.96993 31.521 6.72341L31.5237 6.71941Z" fill="#222222"/>
</svg>