<svg xmlns="http://www.w3.org/2000/svg" width="32" height="23" viewBox="0 0 32 23" fill="none">
  <g clip-path="url(#clip0_191_1766)">
    <path d="M12.8 15.9366L21.104 11.1367L12.8 6.33671V15.9366ZM31.296 3.40874C31.504 4.16073 31.648 5.16872 31.744 6.44871C31.856 7.7287 31.904 8.83269 31.904 9.79268L32 11.1367C32 14.6406 31.744 17.2166 31.296 18.8646C30.896 20.3046 29.968 21.2326 28.528 21.6326C27.776 21.8406 26.4 21.9846 24.288 22.0806C22.208 22.1926 20.304 22.2406 18.544 22.2406L16 22.3366C9.296 22.3366 5.12 22.0806 3.472 21.6326C2.032 21.2326 1.104 20.3046 0.704 18.8646C0.496 18.1126 0.352 17.1046 0.256 15.8246C0.144 14.5446 0.0959999 13.4406 0.0959999 12.4807L0 11.1367C0 7.6327 0.256 5.05672 0.704 3.40874C1.104 1.96875 2.032 1.04076 3.472 0.640762C4.224 0.432763 5.6 0.288764 7.712 0.192765C9.792 0.0807661 11.696 0.0327666 13.456 0.0327666L16 -0.0632324C22.704 -0.0632324 26.88 0.192765 28.528 0.640762C29.968 1.04076 30.896 1.96875 31.296 3.40874Z" fill="#222222"/>
  </g>
  <defs>
    <clipPath id="clip0_191_1766">
      <rect width="32" height="22" fill="white" transform="translate(0 0.136963)"/>
    </clipPath>
  </defs>
</svg>